# xmcd
#
# Track frame offsets: 
#        150
#        14671
#        29071
#        39717
#        54122
#        64371
#        74657
#        85174
#        94146
#        107889
#        121429
#        137703
#        148890
#        161590
#        171382
#
# Disc length: 2411 seconds
#
# Revision: 6
# Processed by: cddbd v1.5.2PL0 Copyright (c) Steve Scherf et al.
# Submitted via: ExactAudioCopy v0.99pb5
#
DISCID=e709690f
DTITLE=Various Artist - Classic Country - TL 626-37 - Bluegrass - CD 1
DYEAR=2003
DGENRE=Country
TTITLE0=Soggy Bottom Boys feat. Dan Tyminski - I am a man of constant 
TTITLE0=sorrow
TTITLE1=Bill Monroe And His Blue Grass Boys - Little cabin home on the
TTITLE1=hill
TTITLE2=Lester Flatt and Earl Scruggs - Foggy mountain breakdown
TTITLE3=Ricky Skaggs - Don't get above your raisin'
TTITLE4=Stanley Brothers - Just a little talk with Jesus
TTITLE5=Reno and Smiley - Barefoot Nellie
TTITLE6=Grandpa Jones - T for Texas
TTITLE7=Stoneman Family - Shady grove
TTITLE8=Kentucky Colonels - New soldier's joy
TTITLE9=Osborne Brothers - Ruby (are you mad at your man)
TTITLE10=Alison Krauss and Union Station - Two highways
TTITLE11=Bill Clifton - Little white washed chimney
TTITLE12=J.D. Crowe and The New South - Old home place
TTITLE13=Bluegrass Cardinals - Ridin the L and N
TTITLE14=Jim and Jesse and The Virginia Boys - Air mail special
EXTD=
EXTT0=
EXTT1=
EXTT2=
EXTT3=
EXTT4=
EXTT5=
EXTT6=
EXTT7=
EXTT8=
EXTT9=
EXTT10=
EXTT11=
EXTT12=
EXTT13=
EXTT14=
PLAYORDER=
